# MagicaVoxel @ ephtracy

# material
mtllib enemy.mtl
usemtl palette

# normals
vn -1 0 0
vn 1 0 0
vn 0 0 1
vn 0 0 -1
vn 0 -1 0
vn 0 1 0

# texcoords
vt 0.00195313 0.5
vt 0.705078 0.5
vt 0.951172 0.5
vt 0.990234 0.5

# verts
v -6 7 -4.5
v -6 7 -5.5
v -6 11 -4.5
v -6 11 -5.5
v -5 0 4.5
v -5 0 1.5
v -5 0 -0.5
v -5 0 -3.5
v -5 2 1.5
v -5 2 -0.5
v -5 12 4.5
v -5 12 -3.5
v -4 0 5.5
v -4 0 4.5
v -4 0 -3.5
v -4 0 -4.5
v -4 4 -3.5
v -4 4 -4.5
v -4 7 -3.5
v -4 7 -4.5
v -4 8 -4.5
v -4 9 -4.5
v -4 11 -4.5
v -4 12 5.5
v -4 12 4.5
v -4 12 3.5
v -4 12 -2.5
v -4 12 -3.5
v -4 12 -4.5
v -4 14 3.5
v -4 14 -2.5
v -3 6 -2.5
v -3 6 -3.5
v -3 7 -2.5
v -3 7 -3.5
v -3 12 4.5
v -3 12 3.5
v -3 12 -2.5
v -3 12 -3.5
v -3 14 4.5
v -3 14 3.5
v -3 14 -2.5
v -3 14 -3.5
v -3 15 3.5
v -3 15 -2.5
v 1 0 5.5
v 1 0 1.5
v 1 0 -0.5
v 1 0 -4.5
v 1 2 5.5
v 1 2 1.5
v 1 2 -0.5
v 1 2 -4.5
v 1 6 -2.5
v 1 6 -3.5
v 1 7 -2.5
v 1 7 -3.5
v 2 7 -4.5
v 2 7 -5.5
v 2 11 -4.5
v 2 11 -5.5
v 4 4 -2.5
v 4 4 -3.5
v 4 7 -2.5
v 4 7 -3.5
v -4 4 -2.5
v -4 4 -3.5
v -4 7 -2.5
v -4 7 -3.5
v -2 7 -4.5
v -2 7 -5.5
v -2 11 -4.5
v -2 11 -5.5
v -1 0 5.5
v -1 0 1.5
v -1 0 -0.5
v -1 0 -4.5
v -1 2 5.5
v -1 2 1.5
v -1 2 -0.5
v -1 2 -4.5
v -1 6 -2.5
v -1 6 -3.5
v -1 7 -2.5
v -1 7 -3.5
v 3 6 -2.5
v 3 6 -3.5
v 3 7 -2.5
v 3 7 -3.5
v 3 12 4.5
v 3 12 3.5
v 3 12 -2.5
v 3 12 -3.5
v 3 14 4.5
v 3 14 3.5
v 3 14 -2.5
v 3 14 -3.5
v 3 15 3.5
v 3 15 -2.5
v 4 0 5.5
v 4 0 4.5
v 4 0 -3.5
v 4 0 -4.5
v 4 4 -3.5
v 4 4 -4.5
v 4 7 -3.5
v 4 7 -4.5
v 4 8 -4.5
v 4 10 -4.5
v 4 11 -4.5
v 4 12 5.5
v 4 12 4.5
v 4 12 3.5
v 4 12 -2.5
v 4 12 -3.5
v 4 12 -4.5
v 4 14 3.5
v 4 14 -2.5
v 5 0 4.5
v 5 0 1.5
v 5 0 -0.5
v 5 0 -3.5
v 5 2 1.5
v 5 2 -0.5
v 5 12 4.5
v 5 12 -3.5
v 6 7 -4.5
v 6 7 -5.5
v 6 11 -4.5
v 6 11 -5.5
v -4 0 5.5
v -4 12 5.5
v -1 0 5.5
v -1 2 5.5
v 1 0 5.5
v 1 2 5.5
v 4 0 5.5
v 4 12 5.5
v -5 0 4.5
v -5 12 4.5
v -4 0 4.5
v -4 12 4.5
v -3 12 4.5
v -3 14 4.5
v 3 12 4.5
v 3 14 4.5
v 4 0 4.5
v 4 12 4.5
v 5 0 4.5
v 5 12 4.5
v -4 12 3.5
v -4 14 3.5
v -3 12 3.5
v -3 14 3.5
v -3 15 3.5
v 3 12 3.5
v 3 14 3.5
v 3 15 3.5
v 4 12 3.5
v 4 14 3.5
v -5 0 -0.5
v -5 2 -0.5
v -4 1 -0.5
v -4 2 -0.5
v -3 1 -0.5
v -3 2 -0.5
v -1 0 -0.5
v -1 2 -0.5
v 1 0 -0.5
v 1 2 -0.5
v 5 0 -0.5
v 5 2 -0.5
v -6 7 -4.5
v -6 11 -4.5
v -5 8 -4.5
v -5 9 -4.5
v -4 7 -4.5
v -4 8 -4.5
v -4 9 -4.5
v -4 11 -4.5
v 4 7 -4.5
v 4 8 -4.5
v 4 10 -4.5
v 4 11 -4.5
v 5 8 -4.5
v 5 10 -4.5
v 6 7 -4.5
v 6 11 -4.5
v -5 0 1.5
v -5 2 1.5
v -1 0 1.5
v -1 2 1.5
v 1 0 1.5
v 1 2 1.5
v 5 0 1.5
v 5 2 1.5
v -4 4 -2.5
v -4 7 -2.5
v -4 12 -2.5
v -4 14 -2.5
v -3 6 -2.5
v -3 7 -2.5
v -3 12 -2.5
v -3 14 -2.5
v -3 15 -2.5
v -1 6 -2.5
v -1 7 -2.5
v 1 6 -2.5
v 1 7 -2.5
v 3 6 -2.5
v 3 7 -2.5
v 3 12 -2.5
v 3 14 -2.5
v 3 15 -2.5
v 4 4 -2.5
v 4 7 -2.5
v 4 12 -2.5
v 4 14 -2.5
v -5 0 -3.5
v -5 12 -3.5
v -4 0 -3.5
v -4 4 -3.5
v -4 7 -3.5
v -4 12 -3.5
v -3 6 -3.5
v -3 7 -3.5
v -3 12 -3.5
v -3 14 -3.5
v -1 6 -3.5
v -1 7 -3.5
v 1 6 -3.5
v 1 7 -3.5
v 3 6 -3.5
v 3 7 -3.5
v 3 12 -3.5
v 3 14 -3.5
v 4 0 -3.5
v 4 4 -3.5
v 4 7 -3.5
v 4 12 -3.5
v 5 0 -3.5
v 5 12 -3.5
v -4 0 -4.5
v -4 4 -4.5
v -4 11 -4.5
v -4 12 -4.5
v -2 7 -4.5
v -2 11 -4.5
v -1 0 -4.5
v -1 2 -4.5
v 1 0 -4.5
v 1 2 -4.5
v 2 7 -4.5
v 2 11 -4.5
v 4 0 -4.5
v 4 4 -4.5
v 4 11 -4.5
v 4 12 -4.5
v -6 7 -5.5
v -6 11 -5.5
v -5 8 -5.5
v -5 9 -5.5
v -4 9 -5.5
v -4 10 -5.5
v -3 8 -5.5
v -3 10 -5.5
v -2 7 -5.5
v -2 11 -5.5
v 2 7 -5.5
v 2 11 -5.5
v 3 8 -5.5
v 3 9 -5.5
v 4 9 -5.5
v 4 10 -5.5
v 5 8 -5.5
v 5 10 -5.5
v 6 7 -5.5
v 6 11 -5.5
v -4 0 5.5
v -1 0 5.5
v 1 0 5.5
v 4 0 5.5
v -5 0 4.5
v -4 0 4.5
v 4 0 4.5
v 5 0 4.5
v -5 0 1.5
v -1 0 1.5
v 1 0 1.5
v 5 0 1.5
v -5 0 -0.5
v -1 0 -0.5
v 1 0 -0.5
v 5 0 -0.5
v -5 0 -3.5
v -4 0 -3.5
v 4 0 -3.5
v 5 0 -3.5
v -4 0 -4.5
v -1 0 -4.5
v 1 0 -4.5
v 4 0 -4.5
v -1 2 5.5
v 1 2 5.5
v -5 2 1.5
v -1 2 1.5
v 1 2 1.5
v 5 2 1.5
v -5 2 -0.5
v -4 2 -0.5
v -3 2 -0.5
v -1 2 -0.5
v 1 2 -0.5
v 5 2 -0.5
v -1 2 -4.5
v 1 2 -4.5
v -3 6 -2.5
v -1 6 -2.5
v 1 6 -2.5
v 3 6 -2.5
v -3 6 -3.5
v -1 6 -3.5
v 1 6 -3.5
v 3 6 -3.5
v -4 7 -2.5
v -3 7 -2.5
v -1 7 -2.5
v 1 7 -2.5
v 3 7 -2.5
v 4 7 -2.5
v -4 7 -3.5
v -3 7 -3.5
v -1 7 -3.5
v 1 7 -3.5
v 3 7 -3.5
v 4 7 -3.5
v -6 7 -4.5
v -4 7 -4.5
v -2 7 -4.5
v 2 7 -4.5
v 4 7 -4.5
v 6 7 -4.5
v -6 7 -5.5
v -2 7 -5.5
v 2 7 -5.5
v 6 7 -5.5
v -4 4 -2.5
v 4 4 -2.5
v -4 4 -3.5
v 4 4 -3.5
v -4 4 -4.5
v 4 4 -4.5
v -6 11 -4.5
v -4 11 -4.5
v -2 11 -4.5
v 2 11 -4.5
v 4 11 -4.5
v 6 11 -4.5
v -6 11 -5.5
v -2 11 -5.5
v 2 11 -5.5
v 6 11 -5.5
v -4 12 5.5
v 4 12 5.5
v -5 12 4.5
v -4 12 4.5
v -3 12 4.5
v 3 12 4.5
v 4 12 4.5
v 5 12 4.5
v -4 12 3.5
v -3 12 3.5
v 3 12 3.5
v 4 12 3.5
v -4 12 -2.5
v -3 12 -2.5
v 3 12 -2.5
v 4 12 -2.5
v -5 12 -3.5
v -4 12 -3.5
v -3 12 -3.5
v 3 12 -3.5
v 4 12 -3.5
v 5 12 -3.5
v -4 12 -4.5
v 4 12 -4.5
v -3 14 4.5
v 3 14 4.5
v -4 14 3.5
v -3 14 3.5
v 3 14 3.5
v 4 14 3.5
v -4 14 -2.5
v -3 14 -2.5
v 3 14 -2.5
v 4 14 -2.5
v -3 14 -3.5
v 3 14 -3.5
v -3 15 3.5
v 3 15 3.5
v -3 15 -2.5
v 3 15 -2.5

# faces
f 3/1/1 2/1/1 1/1/1
f 4/1/1 2/1/1 3/1/1
f 9/2/1 6/2/1 5/2/1
f 10/2/1 8/2/1 7/2/1
f 11/2/1 9/2/1 5/2/1
f 11/2/1 10/2/1 9/2/1
f 12/2/1 8/2/1 10/2/1
f 12/2/1 10/2/1 11/2/1
f 17/2/1 16/2/1 15/2/1
f 18/2/1 16/2/1 17/2/1
f 21/2/1 20/2/1 19/2/1
f 22/2/1 21/2/1 19/2/1
f 23/2/1 22/2/1 19/2/1
f 24/2/1 14/2/1 13/2/1
f 25/2/1 14/2/1 24/2/1
f 28/2/1 23/2/1 19/2/1
f 29/2/1 23/2/1 28/2/1
f 30/2/1 27/2/1 26/2/1
f 31/2/1 27/2/1 30/2/1
f 34/1/1 33/1/1 32/1/1
f 35/1/1 33/1/1 34/1/1
f 40/2/1 37/2/1 36/2/1
f 41/2/1 37/2/1 40/2/1
f 42/2/1 39/2/1 38/2/1
f 43/2/1 39/2/1 42/2/1
f 44/2/1 42/2/1 41/2/1
f 45/2/1 42/2/1 44/2/1
f 50/2/1 47/2/1 46/2/1
f 51/2/1 47/2/1 50/2/1
f 52/2/1 49/2/1 48/2/1
f 53/2/1 49/2/1 52/2/1
f 56/1/1 55/1/1 54/1/1
f 57/1/1 55/1/1 56/1/1
f 60/1/1 59/1/1 58/1/1
f 61/1/1 59/1/1 60/1/1
f 64/2/1 63/2/1 62/2/1
f 65/2/1 63/2/1 64/2/1
f 66/2/2 67/2/2 68/2/2
f 68/2/2 67/2/2 69/2/2
f 70/1/2 71/1/2 72/1/2
f 72/1/2 71/1/2 73/1/2
f 74/2/2 75/2/2 78/2/2
f 78/2/2 75/2/2 79/2/2
f 76/2/2 77/2/2 80/2/2
f 80/2/2 77/2/2 81/2/2
f 82/1/2 83/1/2 84/1/2
f 84/1/2 83/1/2 85/1/2
f 86/1/2 87/1/2 88/1/2
f 88/1/2 87/1/2 89/1/2
f 90/2/2 91/2/2 94/2/2
f 94/2/2 91/2/2 95/2/2
f 92/2/2 93/2/2 96/2/2
f 96/2/2 93/2/2 97/2/2
f 95/2/2 96/2/2 98/2/2
f 98/2/2 96/2/2 99/2/2
f 102/2/2 103/2/2 104/2/2
f 104/2/2 103/2/2 105/2/2
f 106/2/2 107/2/2 108/2/2
f 106/2/2 108/2/2 109/2/2
f 106/2/2 109/2/2 110/2/2
f 100/2/2 101/2/2 111/2/2
f 111/2/2 101/2/2 112/2/2
f 106/2/2 110/2/2 115/2/2
f 115/2/2 110/2/2 116/2/2
f 113/2/2 114/2/2 117/2/2
f 117/2/2 114/2/2 118/2/2
f 119/2/2 120/2/2 123/2/2
f 121/2/2 122/2/2 124/2/2
f 119/2/2 123/2/2 125/2/2
f 123/2/2 124/2/2 125/2/2
f 124/2/2 122/2/2 126/2/2
f 125/2/2 124/2/2 126/2/2
f 127/1/2 128/1/2 129/1/2
f 129/1/2 128/1/2 130/1/2
f 133/2/3 132/2/3 131/2/3
f 134/2/3 132/2/3 133/2/3
f 136/2/3 132/2/3 134/2/3
f 137/2/3 136/2/3 135/2/3
f 138/2/3 132/2/3 136/2/3
f 138/2/3 136/2/3 137/2/3
f 141/2/3 140/2/3 139/2/3
f 142/2/3 140/2/3 141/2/3
f 145/2/3 144/2/3 143/2/3
f 146/2/3 144/2/3 145/2/3
f 149/2/3 148/2/3 147/2/3
f 150/2/3 148/2/3 149/2/3
f 153/2/3 152/2/3 151/2/3
f 154/2/3 152/2/3 153/2/3
f 157/2/3 155/2/3 154/2/3
f 158/2/3 155/2/3 157/2/3
f 159/2/3 157/2/3 156/2/3
f 160/2/3 157/2/3 159/2/3
f 163/2/3 162/2/3 161/2/3
f 164/2/3 162/2/3 163/2/3
f 165/2/3 163/2/3 161/2/3
f 165/4/3 164/4/3 163/4/3
f 166/4/3 164/4/3 165/4/3
f 167/2/3 165/2/3 161/2/3
f 167/2/3 166/2/3 165/2/3
f 168/2/3 166/2/3 167/2/3
f 171/2/3 170/2/3 169/2/3
f 172/2/3 170/2/3 171/2/3
f 175/1/3 174/1/3 173/1/3
f 176/1/3 174/1/3 175/1/3
f 177/1/3 175/1/3 173/1/3
f 178/3/3 176/3/3 175/3/3
f 178/1/3 175/1/3 177/1/3
f 179/1/3 174/1/3 176/1/3
f 179/3/3 176/3/3 178/3/3
f 180/1/3 174/1/3 179/1/3
f 185/1/3 182/1/3 181/1/3
f 185/3/3 183/3/3 182/3/3
f 186/1/3 184/1/3 183/1/3
f 186/3/3 183/3/3 185/3/3
f 187/1/3 185/1/3 181/1/3
f 187/1/3 186/1/3 185/1/3
f 188/1/3 184/1/3 186/1/3
f 188/1/3 186/1/3 187/1/3
f 189/2/4 190/2/4 191/2/4
f 191/2/4 190/2/4 192/2/4
f 193/2/4 194/2/4 195/2/4
f 195/2/4 194/2/4 196/2/4
f 197/2/4 198/2/4 201/2/4
f 201/2/4 198/2/4 202/2/4
f 199/2/4 200/2/4 203/2/4
f 203/2/4 200/2/4 204/2/4
f 197/2/4 201/2/4 206/2/4
f 197/2/4 206/2/4 208/2/4
f 206/2/4 207/2/4 208/2/4
f 208/2/4 207/2/4 209/2/4
f 197/2/4 208/2/4 210/2/4
f 204/2/4 205/2/4 213/2/4
f 213/2/4 205/2/4 214/2/4
f 197/2/4 210/2/4 215/2/4
f 210/2/4 211/2/4 215/2/4
f 215/2/4 211/2/4 216/2/4
f 212/2/4 213/2/4 217/2/4
f 217/2/4 213/2/4 218/2/4
f 219/2/4 220/2/4 221/2/4
f 221/2/4 220/2/4 222/2/4
f 222/2/4 220/2/4 223/2/4
f 223/2/4 220/2/4 224/2/4
f 225/1/4 226/1/4 229/1/4
f 229/1/4 226/1/4 230/1/4
f 231/1/4 232/1/4 233/1/4
f 233/1/4 232/1/4 234/1/4
f 227/2/4 228/2/4 235/2/4
f 235/2/4 228/2/4 236/2/4
f 237/2/4 238/2/4 241/2/4
f 239/2/4 240/2/4 241/2/4
f 238/2/4 239/2/4 241/2/4
f 241/2/4 240/2/4 242/2/4
f 245/2/4 246/2/4 248/2/4
f 243/2/4 244/2/4 249/2/4
f 249/2/4 244/2/4 250/2/4
f 250/2/4 244/2/4 252/2/4
f 247/2/4 248/2/4 253/2/4
f 248/2/4 246/2/4 254/2/4
f 253/2/4 248/2/4 254/2/4
f 251/2/4 252/2/4 255/2/4
f 252/2/4 244/2/4 256/2/4
f 255/2/4 252/2/4 256/2/4
f 254/2/4 246/2/4 257/2/4
f 257/2/4 246/2/4 258/2/4
f 259/1/4 260/1/4 261/1/4
f 261/1/4 260/1/4 262/1/4
f 261/3/4 262/3/4 263/3/4
f 262/1/4 260/1/4 263/1/4
f 263/1/4 260/1/4 264/1/4
f 259/1/4 261/1/4 265/1/4
f 261/3/4 263/3/4 265/3/4
f 263/3/4 264/3/4 265/3/4
f 264/1/4 260/1/4 266/1/4
f 265/3/4 264/3/4 266/3/4
f 259/1/4 265/1/4 267/1/4
f 265/1/4 266/1/4 267/1/4
f 266/1/4 260/1/4 268/1/4
f 267/1/4 266/1/4 268/1/4
f 269/1/4 270/1/4 271/1/4
f 271/1/4 270/1/4 272/1/4
f 271/3/4 272/3/4 273/3/4
f 272/1/4 270/1/4 273/1/4
f 273/1/4 270/1/4 274/1/4
f 269/1/4 271/1/4 275/1/4
f 271/3/4 273/3/4 275/3/4
f 273/3/4 274/3/4 275/3/4
f 274/1/4 270/1/4 276/1/4
f 275/3/4 274/3/4 276/3/4
f 269/1/4 275/1/4 277/1/4
f 275/1/4 276/1/4 277/1/4
f 276/1/4 270/1/4 278/1/4
f 277/1/4 276/1/4 278/1/4
f 284/2/5 280/2/5 279/2/5
f 285/2/5 282/2/5 281/2/5
f 287/2/5 284/2/5 283/2/5
f 288/2/5 280/2/5 284/2/5
f 288/2/5 284/2/5 287/2/5
f 289/2/5 286/2/5 285/2/5
f 289/2/5 285/2/5 281/2/5
f 290/2/5 286/2/5 289/2/5
f 295/2/5 292/2/5 291/2/5
f 296/2/5 292/2/5 295/2/5
f 297/2/5 294/2/5 293/2/5
f 298/2/5 294/2/5 297/2/5
f 299/2/5 292/2/5 296/2/5
f 300/2/5 292/2/5 299/2/5
f 301/2/5 297/2/5 293/2/5
f 302/2/5 297/2/5 301/2/5
f 306/2/5 304/2/5 303/2/5
f 307/2/5 304/2/5 306/2/5
f 309/2/5 306/2/5 305/2/5
f 309/2/5 308/2/5 307/2/5
f 309/2/5 307/2/5 306/2/5
f 310/2/5 308/2/5 309/2/5
f 311/2/5 308/2/5 310/2/5
f 312/2/5 308/2/5 311/2/5
f 313/2/5 308/2/5 312/2/5
f 314/2/5 308/2/5 313/2/5
f 315/2/5 313/2/5 312/2/5
f 316/2/5 313/2/5 315/2/5
f 321/1/5 318/1/5 317/1/5
f 322/1/5 318/1/5 321/1/5
f 323/1/5 320/1/5 319/1/5
f 324/1/5 320/1/5 323/1/5
f 331/2/5 326/2/5 325/2/5
f 332/2/5 326/2/5 331/2/5
f 333/2/5 328/2/5 327/2/5
f 334/2/5 328/2/5 333/2/5
f 335/2/5 330/2/5 329/2/5
f 336/2/5 330/2/5 335/2/5
f 338/2/5 334/2/5 333/2/5
f 338/2/5 332/2/5 331/2/5
f 338/2/5 336/2/5 335/2/5
f 338/2/5 335/2/5 334/2/5
f 338/2/5 333/2/5 332/2/5
f 339/2/5 336/2/5 338/2/5
f 340/2/5 336/2/5 339/2/5
f 341/2/5 336/2/5 340/2/5
f 343/1/5 338/1/5 337/1/5
f 343/1/5 339/1/5 338/1/5
f 344/1/5 339/1/5 343/1/5
f 345/1/5 341/1/5 340/1/5
f 345/1/5 342/1/5 341/1/5
f 346/1/5 342/1/5 345/1/5
f 347/2/6 348/2/6 349/2/6
f 349/2/6 348/2/6 350/2/6
f 349/2/6 350/2/6 351/2/6
f 351/2/6 350/2/6 352/2/6
f 353/1/6 354/1/6 359/1/6
f 354/1/6 355/1/6 359/1/6
f 359/1/6 355/1/6 360/1/6
f 357/1/6 358/1/6 361/1/6
f 356/1/6 357/1/6 361/1/6
f 361/1/6 358/1/6 362/1/6
f 363/2/6 364/2/6 366/2/6
f 366/2/6 364/2/6 367/2/6
f 367/2/6 364/2/6 368/2/6
f 368/2/6 364/2/6 369/2/6
f 365/2/6 366/2/6 371/2/6
f 366/2/6 367/2/6 371/2/6
f 371/2/6 367/2/6 372/2/6
f 369/2/6 370/2/6 373/2/6
f 368/2/6 369/2/6 373/2/6
f 373/2/6 370/2/6 374/2/6
f 365/2/6 371/2/6 375/2/6
f 374/2/6 370/2/6 378/2/6
f 375/2/6 376/2/6 379/2/6
f 365/2/6 375/2/6 379/2/6
f 379/2/6 376/2/6 380/2/6
f 380/2/6 376/2/6 381/2/6
f 377/2/6 378/2/6 382/2/6
f 378/2/6 370/2/6 383/2/6
f 382/2/6 378/2/6 383/2/6
f 383/2/6 370/2/6 384/2/6
f 380/2/6 381/2/6 385/2/6
f 381/2/6 382/2/6 385/2/6
f 382/2/6 383/2/6 385/2/6
f 385/2/6 383/2/6 386/2/6
f 387/2/6 388/2/6 390/2/6
f 390/2/6 388/2/6 391/2/6
f 389/2/6 390/2/6 393/2/6
f 393/2/6 390/2/6 394/2/6
f 391/2/6 392/2/6 395/2/6
f 395/2/6 392/2/6 396/2/6
f 394/2/6 395/2/6 397/2/6
f 397/2/6 395/2/6 398/2/6
f 399/2/6 400/2/6 401/2/6
f 401/2/6 400/2/6 402/2/6
